<?xml version="1.0" encoding="utf-8"?>
<!-- Generator: Adobe Illustrator 21.1.0, SVG Export Plug-In . SVG Version: 6.00 Build 0)  -->
<svg version="1.1" id="Layer_1" xmlns="http://www.w3.org/2000/svg" xmlns:xlink="http://www.w3.org/1999/xlink" x="0px" y="0px"
	 viewBox="0 0 378.2 378" style="enable-background:new 0 0 378.2 378;" xml:space="preserve">
<style type="text/css">
	.st0{fill:#010101;}
</style>
<g>
	<g>
		<g>
			<path class="st0" d="M197.8,143.2v91.6H81.7v-91.6H197.8 M201.2,129.6h-123c-5.6,0-10.1,4.5-10.1,10.1v98.5
				c0,5.6,4.5,10.1,10.1,10.1h123c5.6,0,10.1-4.5,10.1-10.1v-98.5C211.3,134.2,206.8,129.6,201.2,129.6L201.2,129.6z"/>
		</g>
		<path class="st0" d="M330.9,215.9H212c-5.6,0-10.1-4.5-10.1-10.1v-33.6c0-5.6,4.5-10.1,10.1-10.1h118.9c5.6,0,10.1,4.5,10.1,10.1
			v33.6C341,211.4,336.4,215.9,330.9,215.9z"/>
	</g>
</g>
</svg>
