<?xml version="1.0" encoding="utf-8"?>
<!-- Generator: Adobe Illustrator 21.1.0, SVG Export Plug-In . SVG Version: 6.00 Build 0)  -->
<svg version="1.1" id="Layer_1" xmlns="http://www.w3.org/2000/svg" xmlns:xlink="http://www.w3.org/1999/xlink" x="0px" y="0px"
	 viewBox="0 0 378.2 378" style="enable-background:new 0 0 378.2 378;" xml:space="preserve">
<style type="text/css">
	.st0{fill:#010101;}
</style>
<g>
	<g>
		<g>
			<path class="st0" d="M211.3,143.2h116.1v91.6H211.3L211.3,143.2 M207.9,129.6c-5.6,0-10.1,4.6-10.1,10.1l0,98.5
				c0,5.6,4.5,10.1,10.1,10.1h123c5.6,0,10.1-4.5,10.1-10.1v-98.5c0-5.6-4.5-10.1-10.1-10.1H207.9L207.9,129.6z"/>
		</g>
		<path class="st0" d="M68.1,205.8v-33.6c0-5.6,4.5-10.1,10.1-10.1h118.9c5.6,0,10.1,4.5,10.1,10.1l0,33.6c0,5.6-4.5,10.1-10.1,10.1
			H78.2C72.7,215.9,68.1,211.4,68.1,205.8z"/>
	</g>
</g>
</svg>
